#VRML V2.0 utf8
# Panasonic ECHU(X) film chip capacitor
Transform { translation -1.023622 0.000000 0.551181 children [
  Shape {
    appearance Appearance { material Material {
      diffuseColor 0.760 0.770 0.790
      specularColor 0.20 0.20 0.20
      shininess 0.30 } }
    geometry Box { size 0.314961 1.614173 1.102362 }
  } ] }
Transform { translation 1.023622 0.000000 0.551181 children [
  Shape {
    appearance Appearance { material Material {
      diffuseColor 0.760 0.770 0.790
      specularColor 0.20 0.20 0.20
      shininess 0.30 } }
    geometry Box { size 0.314961 1.614173 1.102362 }
  } ] }
Transform { translation 0.000000 0.000000 0.551181 children [
  Shape {
    appearance Appearance { material Material {
      diffuseColor 0.790 0.720 0.550
      specularColor 0.20 0.20 0.20
      shininess 0.30 } }
    geometry Box { size 1.732283 1.598425 1.086614 }
  } ] }
