#VRML V2.0 utf8
# Panasonic ECHU(X) film chip capacitor
Transform { translation -0.305118 0.000000 0.177165 children [
  Shape {
    appearance Appearance { material Material {
      diffuseColor 0.760 0.770 0.790
      specularColor 0.20 0.20 0.20
      shininess 0.30 } }
    geometry Box { size 0.177165 0.492126 0.354331 }
  } ] }
Transform { translation 0.305118 0.000000 0.177165 children [
  Shape {
    appearance Appearance { material Material {
      diffuseColor 0.760 0.770 0.790
      specularColor 0.20 0.20 0.20
      shininess 0.30 } }
    geometry Box { size 0.177165 0.492126 0.354331 }
  } ] }
Transform { translation 0.000000 0.000000 0.177165 children [
  Shape {
    appearance Appearance { material Material {
      diffuseColor 0.790 0.720 0.550
      specularColor 0.20 0.20 0.20
      shininess 0.30 } }
    geometry Box { size 0.433071 0.476378 0.338583 }
  } ] }
