#VRML V2.0 utf8
# Panasonic ECHU(X) film chip capacitor
Transform { translation -0.787402 0.000000 0.295276 children [
  Shape {
    appearance Appearance { material Material {
      diffuseColor 0.760 0.770 0.790
      specularColor 0.20 0.20 0.20
      shininess 0.30 } }
    geometry Box { size 0.314961 1.299213 0.590551 }
  } ] }
Transform { translation 0.787402 0.000000 0.295276 children [
  Shape {
    appearance Appearance { material Material {
      diffuseColor 0.760 0.770 0.790
      specularColor 0.20 0.20 0.20
      shininess 0.30 } }
    geometry Box { size 0.314961 1.299213 0.590551 }
  } ] }
Transform { translation 0.000000 0.000000 0.295276 children [
  Shape {
    appearance Appearance { material Material {
      diffuseColor 0.790 0.720 0.550
      specularColor 0.20 0.20 0.20
      shininess 0.30 } }
    geometry Box { size 1.259843 1.283465 0.574803 }
  } ] }
