#VRML V2.0 utf8
# Panasonic ECHU(X) film chip capacitor
Transform { translation -0.246063 0.000000 0.137795 children [
  Shape {
    appearance Appearance { material Material {
      diffuseColor 0.760 0.770 0.790
      specularColor 0.20 0.20 0.20
      shininess 0.30 } }
    geometry Box { size 0.137795 0.314961 0.275591 }
  } ] }
Transform { translation 0.246063 0.000000 0.137795 children [
  Shape {
    appearance Appearance { material Material {
      diffuseColor 0.760 0.770 0.790
      specularColor 0.20 0.20 0.20
      shininess 0.30 } }
    geometry Box { size 0.137795 0.314961 0.275591 }
  } ] }
Transform { translation 0.000000 0.000000 0.137795 children [
  Shape {
    appearance Appearance { material Material {
      diffuseColor 0.790 0.720 0.550
      specularColor 0.20 0.20 0.20
      shininess 0.30 } }
    geometry Box { size 0.354331 0.299213 0.259843 }
  } ] }
